<?xml version="1.0" encoding="utf-8"?>
<!-- Generator: Adobe Illustrator 24.1.2, SVG Export Plug-In . SVG Version: 6.00 Build 0)  -->
<svg version="1.1" id="Layer_1" xmlns="http://www.w3.org/2000/svg" xmlns:xlink="http://www.w3.org/1999/xlink" x="0px" y="0px"
	 viewBox="0 0 38 22" style="enable-background:new 0 0 38 22;" xml:space="preserve">
<style type="text/css">
	.st0{fill-rule:evenodd;clip-rule:evenodd;fill:#212121;}
	.st1{fill-rule:evenodd;clip-rule:evenodd;fill:#FF1744;}
</style>
<g>
	<path class="st0" d="M0,0v1.7h1.6V6h2.3V1.7h1.6V0H0z M7.4,0L5.1,6h2.3l1.3-3.6L9.9,6h2.3L9.9,0H7.4z M11.8,0v1.7h1.6V6h2.3V1.7
		h1.6V0H11.8L11.8,0z M19.2,0l-2.3,6h2.3l1.3-3.6L21.7,6H24l-2.3-6H19.2z M0,15C0,11,2.2,9,6,9c2.3,0,3.8,0.8,4.6,1.9
		c0.2,0.2,0.2,0.4,0.2,0.6c0,0.5-0.5,0.9-1,0.9c-0.3,0-0.5-0.1-0.8-0.3c-0.8-0.8-1.6-1.2-3-1.2c-2.6,0-3.7,1.4-3.7,4.2
		c0,3,1.2,4.2,3.7,4.2c1.4,0,2.2-0.3,3.1-1.1c0.3-0.3,0.6-0.4,0.8-0.4c0.6,0,1,0.4,1,0.9c0,0.2-0.1,0.4-0.2,0.5
		C9.9,20.2,8.1,21,6,21C2.2,21,0,19.2,0,15 M18,19.1c0.5,0,0.9,0.4,1,0.9c0,0,0,0,0,0c0,0.5-0.4,1-1,1H13c-0.6,0-1-0.4-1-1V10
		c0-0.6,0.4-1,1-1s1,0.5,1,1v9.1H18z M23,19.9c0,0.6-0.4,1.1-1,1.1c-0.6,0-1-0.5-1-1.1v-6.9c0-0.6,0.4-1.1,1-1.1c0.6,0,1,0.5,1,1.1
		C23,13.1,23,19.9,23,19.9z M37,22c-0.3,0-0.5-0.1-0.7-0.3l-1.4-1.4l-0.4,0.2c-0.1,0.1-0.2,0.1-0.3,0.1l0,0c-0.6,0.3-1.3,0.5-2,0.6
		c-0.3,0-0.6,0.1-0.9,0.1c-0.5,0-1-0.1-1.5-0.2c-0.8-0.2-1.5-0.6-2.2-1c-0.7-0.5-1.2-1.1-1.6-1.8c-0.1-0.2-0.2-0.4-0.3-0.5
		c-0.2-0.5-0.4-1.1-0.5-1.6l0-0.1l0-0.1l0-0.1c0-0.3-0.1-0.5-0.1-0.8c0-0.5,0.1-1,0.2-1.5c0.2-0.8,0.6-1.5,1-2.2
		c0.5-0.6,1.1-1.2,1.8-1.6c0.3-0.2,0.6-0.3,0.9-0.4c0.5-0.2,1-0.3,1.5-0.4C31.2,8.9,32,9,32.9,9.2l0,0c0.1,0,0.1,0,0.2,0.1l0,0
		c1.3,0.4,2.4,1.2,3.2,2.3c0.1,0.1,0.2,0.3,0.2,0.4c0.3,0.5,0.6,1.1,0.7,1.7c0.1,0.2,0.1,0.5,0.1,0.8c0.1,0.8,0,1.5-0.1,2.3
		c-0.1,0.6-0.4,1.2-0.7,1.7l-0.2,0.4l1.4,1.4c0.4,0.4,0.4,1.1,0,1.5C37.5,21.9,37.2,22,37,22 M31.3,10.7c-0.2,0-0.5,0-0.7,0.1
		c-0.6,0.1-1.2,0.3-1.7,0.6l0,0c-0.5,0.3-0.9,0.7-1.3,1.2c-0.4,0.5-0.6,1-0.8,1.6c-0.2,0.6-0.2,1.2-0.1,1.7c0.1,0.6,0.3,1.2,0.6,1.7
		c0.3,0.5,0.7,0.9,1.2,1.3c1.3,1,3,1.2,4.4,0.6c0.8-0.3,1.4-0.8,1.9-1.5c0.3-0.5,0.6-1,0.7-1.6c0.1-0.6,0.2-1.2,0.1-1.8
		c-0.2-1.2-0.8-2.3-1.8-3C33.2,11,32.2,10.7,31.3,10.7"/>
	<path class="st1" d="M23.6,9.9c0.5,0.5,0.5,1.3,0,1.8s-1.3,0.5-1.8,0l-1.5-1.5c-0.5-0.5-0.5-1.3,0-1.8c0.5-0.5,1.2-0.5,1.7,0
		L23.6,9.9L23.6,9.9z"/>
</g>
</svg>
