<svg id="Capa_1" enable-background="new 0 0 510.002 510.002" height="512" viewBox="0 0 510.002 510.002" width="512" xmlns="http://www.w3.org/2000/svg"><path d="m440.55 230.905-7.23.001-.014-107.983c0-8.277-6.718-15-15.002-14.998l-93.886.015-.001-7.231c-.006-38.289-31.154-69.433-69.441-69.433-.002 0-.01 0-.012 0-38.378.004-69.437 31.066-69.433 69.452l.001 7.231-93.885.014c-8.284.001-14.999 6.718-14.998 15.002l.014 107.983-7.23.001c-38.379.006-69.439 31.067-69.433 69.453.005 38.288 31.155 69.434 69.443 69.433h.01l7.229-.001.014 93.885c.001 8.284 6.718 14.999 15.002 14.998l108.886-.016c8.281-.002 15-6.72 14.998-15.006l-.003-7.904c-.004-21.561 17.441-39.445 39.437-39.447h.007c21.775 0 39.439 17.645 39.441 39.442l.004 7.907c.004 8.282 6.72 14.993 15.002 14.992l108.885-.016c8.284-.001 14.999-6.718 14.998-15.002l-.014-93.886 7.23-.001c38.292-.006 69.438-31.163 69.433-69.453-.004-38.352-31.033-69.432-69.452-69.432zm.015 108.886-22.23.003c-8.278 0-15 6.718-14.998 15.002l.014 93.886-79.243.012c-3.523-34.848-32.957-62.34-69.084-62.34-.004 0-.009 0-.012 0-36.322.004-65.582 27.701-69.077 62.359l-79.24.012-.014-93.886c-.002-8.278-6.719-15-15.003-14.998l-22.229.004c-21.75.003-39.446-17.689-39.449-39.437-.004-21.8 17.633-39.445 39.437-39.449l22.23-.003c8.284-.001 14.999-6.718 14.998-15.002l-.014-107.983 93.885-.014c8.284-.001 14.999-6.718 14.998-15.002l-.003-22.231c-.002-21.799 17.635-39.446 39.438-39.448h.006c21.745 0 39.438 17.69 39.442 39.437l.003 22.231c.002 8.296 6.735 15 15.002 14.998l93.886-.015.014 107.983c0 8.278 6.718 15 15.002 14.998.006 0 22.243-.003 22.237-.003 21.794 0 39.439 17.634 39.441 39.438.004 21.748-17.688 39.444-39.437 39.448z"/><path d="m258.539 178.395c-30.056-2.062-53.956 21.901-53.956 50.291 0 8.284 6.716 15 15 15s15-6.716 15-15c0-11.747 9.886-21.191 21.892-20.361 10.069.694 18.188 8.813 18.882 18.881.647 9.391-5.113 17.981-14.008 20.889-12.772 4.176-21.354 15.946-21.354 29.289v11.806c0 8.284 6.716 15 15 15s15-6.716 15-15v-11.806c0-.382.339-.664.676-.773 21.975-7.185 36.208-28.349 34.615-51.468-1.721-24.931-21.817-45.028-46.747-46.748z"/><path d="m254.995 322.923c-8.284 0-15 6.716-15 15v1.182c0 8.284 6.716 15 15 15s15-6.716 15-15v-1.182c0-8.284-6.716-15-15-15z"/></svg>