<svg id="Capa_1" enable-background="new 0 0 512 512" height="512" viewBox="0 0 512 512" width="512" xmlns="http://www.w3.org/2000/svg"><g><path d="m469.22 124.061c-25.594-6.424-51.154 4.885-63.615 28.138l-8.637 16.118c-26.825-.784-53.621-6.705-79.743-17.647-19.418-8.134-40.018-12.258-61.225-12.258s-41.807 4.124-61.225 12.258c-26.122 10.942-52.918 16.863-79.743 17.647l-8.637-16.118c-12.461-23.254-38.021-34.562-63.615-28.138-25.588 6.424-42.78 28.466-42.78 54.848v70.15c0 44.475 36.184 80.658 80.658 80.658h48.201c30.269 36.625 76.026 60.003 127.141 60.003s96.871-23.378 127.141-60.003h48.201c44.475 0 80.658-36.183 80.658-80.658v-70.15c0-26.382-17.192-48.424-42.78-54.848zm-275.221 125.004v-30h124.002v30zm124.002 30.003v30h-124.002v-30zm-237.343 20.649c-27.932 0-50.658-22.725-50.658-50.658v-70.15c0-15.269 10.375-23.313 20.085-25.751 9.712-2.437 22.656-.247 29.867 13.211l11.152 20.812v37.645c0 26.948 6.499 52.406 18.01 74.892h-28.456zm401.342-50.658c0 27.933-22.726 50.658-50.658 50.658h-28.457c11.511-22.485 18.01-47.944 18.01-74.892v-37.645l11.152-20.812c7.212-13.457 20.152-15.646 29.867-13.211 9.71 2.438 20.085 10.483 20.085 25.751v70.151z"/></g></svg>