<?xml version="1.0"?>
<svg xmlns="http://www.w3.org/2000/svg" id="Layer_1" data-name="Layer 1" viewBox="0 0 512 512" width="512" height="512"><path d="M36,432H476a26.029,26.029,0,0,0,26-26V106a26.029,26.029,0,0,0-26-26H36a26.029,26.029,0,0,0-26,26V406A26.029,26.029,0,0,0,36,432ZM22,106A14.015,14.015,0,0,1,36,92H476a14.015,14.015,0,0,1,14,14V406a14.015,14.015,0,0,1-14,14H36a14.015,14.015,0,0,1-14-14Z"/><path d="M76,388.25H356a26.029,26.029,0,0,0,26-26V149.75a26.029,26.029,0,0,0-26-26H76a26.029,26.029,0,0,0-26,26v212.5A26.029,26.029,0,0,0,76,388.25ZM370,265.563c-8.71,1.681-13.919,6.869-18.245,11.194C346.969,281.543,343.511,285,336,285s-10.974-3.458-15.76-8.243C315,271.519,308.476,265,295.99,265s-19,6.52-24.243,11.758c-4.785,4.785-8.242,8.242-15.757,8.242s-10.972-3.457-15.758-8.242C234.994,271.52,228.475,265,215.989,265s-19,6.52-24.242,11.758C186.962,281.543,183.5,285,175.99,285s-10.971-3.457-15.757-8.242C155,271.52,148.477,265,135.992,265s-19,6.52-24.24,11.758C106.968,281.543,103.511,285,96,285s-10.971-3.457-15.756-8.242c-4.325-4.325-9.534-9.514-18.242-11.195V227.941c3.8,1.341,6.461,4.006,9.756,7.3C76.994,240.48,83.513,247,96,247s19-6.52,24.24-11.758c4.784-4.785,8.241-8.242,15.754-8.242s10.971,3.457,15.756,8.242C156.986,240.48,163.505,247,175.99,247s19-6.52,24.242-11.758c4.785-4.785,8.243-8.242,15.757-8.242s10.973,3.457,15.758,8.242C236.985,240.48,243.505,247,255.99,247s19-6.52,24.242-11.758c4.786-4.785,8.243-8.242,15.758-8.242s10.974,3.457,15.76,8.243C316.989,240.481,323.509,247,336,247S355,240.481,360.24,235.243c3.3-3.3,5.963-5.962,9.76-7.3ZM356,376.25H76a14.015,14.015,0,0,1-14-14V277.941c3.8,1.341,6.461,4.006,9.756,7.3C76.994,290.48,83.513,297,96,297s19-6.52,24.24-11.758c4.784-4.785,8.241-8.242,15.754-8.242s10.971,3.457,15.756,8.242C156.986,290.48,163.505,297,175.99,297s19-6.52,24.242-11.758c4.785-4.785,8.243-8.242,15.757-8.242s10.973,3.457,15.758,8.242C236.985,290.48,243.505,297,255.99,297s19-6.52,24.242-11.758c4.786-4.785,8.243-8.242,15.758-8.242s10.974,3.457,15.76,8.243C316.989,290.481,323.509,297,336,297S355,290.481,360.24,285.243c3.3-3.3,5.963-5.962,9.76-7.3V362.25A14.015,14.015,0,0,1,356,376.25ZM76,135.75H356a14.015,14.015,0,0,1,14,14v65.813c-8.71,1.681-13.919,6.869-18.245,11.194C346.969,231.543,343.511,235,336,235s-10.974-3.458-15.76-8.243C315,221.519,308.476,215,295.99,215s-19,6.52-24.243,11.758c-4.785,4.785-8.242,8.242-15.757,8.242s-10.972-3.457-15.758-8.242C234.994,221.52,228.475,215,215.989,215s-19,6.52-24.242,11.758C186.962,231.543,183.5,235,175.99,235s-10.971-3.457-15.757-8.242C155,221.52,148.477,215,135.992,215s-19,6.52-24.24,11.758C106.968,231.543,103.511,235,96,235s-10.971-3.457-15.756-8.242c-4.325-4.325-9.534-9.514-18.242-11.2V149.75A14.015,14.015,0,0,1,76,135.75Z"/><path d="M411,328.146a11,11,0,1,0-11-11A11.012,11.012,0,0,0,411,328.146Z"/><path d="M461,306.146a11,11,0,1,0,11,11A11.013,11.013,0,0,0,461,306.146Z"/><path d="M411,368.146a11,11,0,1,0-11-11A11.012,11.012,0,0,0,411,368.146Z"/><path d="M461,346.146a11,11,0,1,0,11,11A11.013,11.013,0,0,0,461,346.146Z"/><path d="M406,195.854h60a6,6,0,0,0,6-6v-40a6,6,0,0,0-6-6H406a6,6,0,0,0-6,6v40A6,6,0,0,0,406,195.854Zm6-40h48v28H412Z"/><path d="M406,255.854h60a6,6,0,0,0,6-6v-40a6,6,0,0,0-6-6H406a6,6,0,0,0-6,6v40A6,6,0,0,0,406,255.854Zm6-40h48v28H412Z"/></svg>
