<svg id="FilledOutline" height="512" viewBox="0 0 512 512" width="512" xmlns="http://www.w3.org/2000/svg"><path d="m176 192s-7.534-24.311 16-40c24-16 56.882 47.909 80.882 63.909z" fill="#4e4e4e"/><path d="m488 304-40 32-64 8h-120l-176-24-40-32s13-71.49 3.85-109.03a12.793 12.793 0 0 1 24.24-7.9c6.99 16.32 23.32 44.93 51.91 44.93 40 0 40-32 72-32 5.7 0 13.44 2.29 22.58 6.1 4.8 1.99 10 4.42 15.49 7.15 9.94 4.94 20.84 10.89 32.17 17.19 4.78 2.66 9.64 5.38 14.53 8.11 10.63 5.93 21.41 11.92 31.92 17.44 5.09 2.67 10.11 5.23 15.02 7.62 8.08 3.95 15.87 7.45 23.14 10.22a124.12 124.12 0 0 0 17.24 5.4c1.34.3 2.64.56 3.91.77 48 8 112 0 112 40z" fill="#676767"/><path d="m136.54 287.46 47.46-47.46 24 24-30.14 30.14z" fill="#969595"/><path d="m214.72 305.28 41.28-41.28 24 24-40 40z" fill="#969595"/><path d="m24 328 24-40s88-8 136 8 120 32 184 32 120-24 120-24-8 64-136 64c-80 0-128-8-168-8-16 0-120 8-160-32z" fill="#cacac9"/><path d="m496 303.956c0-.03 0-.06 0-.09-.05-17.077-9.6-29.066-28.384-35.63-14.9-5.206-33.853-6.692-53.919-8.265-12.258-.961-24.934-1.955-36.377-3.863-22.935-3.822-60.009-24.542-92.72-42.822q-3.773-2.108-7.466-4.169c-7.384-5.008-16.718-16.278-25.749-27.19-9.359-11.308-19.037-23-28.74-30.811-13.148-10.583-24.949-12.525-35.078-5.772-19.309 12.872-21.986 32.027-20.337 43.787-1.394 1.192-2.745 2.392-4.062 3.57-9.183 8.209-17.109 15.299-35.168 15.299-23.831 0-38.143-25.109-44.553-40.076a20.8 20.8 0 0 0 -39.372 12.938c7.956 32.637-1.98 94.214-3.7 104.3l-23.235 38.722a8 8 0 0 0 1.2 9.773c16.634 16.633 44.773 27.473 83.638 32.218 30.656 3.742 60.549 2.771 74.915 2.308 3.14-.1 5.622-.183 7.1-.183 16.263 0 34.177 1.37 54.919 2.957 29.373 2.243 65.919 5.043 113.088 5.043 133.527 0 143.576-68.108 143.938-71.008a7.891 7.891 0 0 0 .062-.992c0-.015 0-.029 0-.044zm-299.56-145.3c8.632-5.756 24.292 11.52 38.051 27.977-13.963-6.523-25.778-10.633-34.491-10.633a45.43 45.43 0 0 0 -16.914 3.067c.83-6.259 3.974-14.159 13.352-20.411zm265.176 172.3c-15.492 13.249-47.083 29.044-109.616 29.044-46.558 0-82.767-2.771-111.86-5-21.07-1.612-39.266-3-56.14-3-1.742 0-4.337.084-7.622.19-26.8.87-105.992 3.441-142.126-25.727l18.488-30.814c17.579-1.29 88.577-5.444 128.73 7.941 47.005 15.668 120.69 32.41 186.53 32.41 43.792 0 83.493-10.766 105.4-18.076a65.353 65.353 0 0 1 -11.786 13.03zm-286.182-45.7a214.805 214.805 0 0 0 -21.414-3.958l29.98-29.985 12.687 12.687zm75.35 20.644c-7.029-1.543-13.9-3.16-20.54-4.831l25.756-25.756 12.687 12.687zm117.216 14.1c-32.271 0-66.529-4.162-98.44-10.245l16.1-16.1a8 8 0 0 0 0-11.314l-24-24a8 8 0 0 0 -11.314 0l-37.968 37.968c-6.86-1.93-13.39-3.889-19.525-5.846l20.807-20.808a8 8 0 0 0 0-11.314l-24-24a8 8 0 0 0 -11.314 0l-44.84 44.839c-30.288-2.221-60.588-.9-75.969.086 3.266-21.475 9.516-71.7 2.083-102.193a4.8 4.8 0 0 1 9.119-2.85c18.549 43.31 45.091 49.777 59.261 49.777 24.17 0 36.18-10.742 45.83-19.373 7.888-7.055 14.117-12.627 26.17-12.627 3.992 0 9.67 1.595 16.432 4.254l-14.089 14.089 11.314 11.314 18.412-18.411c10.075 4.915 21.225 10.95 32.29 17.081l-14.016 14.016 11.314 11.314 17.231-17.231c10.652 5.951 21.388 11.931 31.883 17.488l-12.428 12.429 11.314 11.314 16.064-16.063c7.949 3.936 15.652 7.477 22.957 10.414l-10.335 10.335 11.314 11.314 15.843-15.842a90.83 90.83 0 0 0 9.185 2.077c12.128 2.021 25.157 3.043 37.756 4.03 38.329 3 62.919 6.216 66.959 22.866-15.354 5.771-61.135 21.212-111.4 21.212z"/></svg>