<?xml version="1.0" encoding="iso-8859-1"?>
<!-- Generator: Adobe Illustrator 19.0.0, SVG Export Plug-In . SVG Version: 6.00 Build 0)  -->
<svg version="1.1" id="Capa_1" xmlns="http://www.w3.org/2000/svg" xmlns:xlink="http://www.w3.org/1999/xlink" x="0px" y="0px"
	 viewBox="0 0 436.907 436.907" style="enable-background:new 0 0 436.907 436.907;" xml:space="preserve">
<g>
	<g>
		<path d="M273.067,27.307h-122.88c-3.768,0-6.827,3.058-6.827,6.827V61.44c0,3.768,3.058,6.827,6.827,6.827h122.88
			c3.768,0,6.827-3.058,6.827-6.827V34.133C279.893,30.365,276.835,27.307,273.067,27.307z M266.24,54.613H157.013V40.96H266.24
			V54.613z"/>
	</g>
</g>
<g>
	<g>
		<path d="M273.067,54.613h-122.88c-3.768,0-6.827,3.058-6.827,6.827v54.613c0,3.768,3.058,6.827,6.827,6.827
			s6.827-3.058,6.827-6.827V68.267H266.24v47.787c0,3.768,3.058,6.827,6.827,6.827s6.827-3.058,6.827-6.827V61.44
			C279.893,57.672,276.835,54.613,273.067,54.613z"/>
	</g>
</g>
<g>
	<g>
		<path d="M273.067,0h-122.88c-3.768,0-6.827,3.058-6.827,6.827v27.307c0,3.768,3.058,6.827,6.827,6.827h122.88
			c3.768,0,6.827-3.058,6.827-6.827V6.827C279.893,3.058,276.835,0,273.067,0z M266.24,27.307H157.013V13.653H266.24V27.307z"/>
	</g>
</g>
<g>
	<g>
		<path d="M273.067,314.027h-1.444c-3.768,0-6.827,3.058-6.827,6.827c0,1.584,0.539,3.041,1.444,4.198v98.202H157.013v-102.4
			c0-3.768-3.058-6.827-6.827-6.827s-6.827,3.058-6.827,6.827V430.08c0,3.768,3.058,6.827,6.827,6.827h122.88
			c3.768,0,6.827-3.058,6.827-6.827V320.853C279.893,317.085,276.835,314.027,273.067,314.027z"/>
	</g>
</g>
<g>
	<g>
		<path d="M211.627,95.573c-67.758,0-122.88,55.122-122.88,122.88s55.122,122.88,122.88,122.88s122.88-55.122,122.88-122.88
			S279.385,95.573,211.627,95.573z M211.627,327.68c-60.228,0-109.227-48.998-109.227-109.227s48.998-109.227,109.227-109.227
			s109.227,48.998,109.227,109.227S271.855,327.68,211.627,327.68z"/>
	</g>
</g>
<g>
	<g>
		<path d="M341.333,191.147H327.68c-3.768,0-6.827,3.058-6.827,6.827v40.96c0,3.768,3.058,6.827,6.827,6.827h13.653
			c3.768,0,6.827-3.058,6.827-6.827v-40.96C348.16,194.205,345.102,191.147,341.333,191.147z"/>
	</g>
</g>
<g>
	<g>
		<path d="M269.295,239.654l-50.842-25.419V122.88c0-3.768-3.058-6.827-6.827-6.827s-6.827,3.058-6.827,6.827v95.573
			c0,2.584,1.461,4.949,3.775,6.106l54.613,27.307c0.98,0.488,2.021,0.72,3.048,0.72c2.502,0,4.912-1.382,6.113-3.772
			C274.033,245.439,272.667,241.34,269.295,239.654z"/>
	</g>
</g>
<g>
</g>
<g>
</g>
<g>
</g>
<g>
</g>
<g>
</g>
<g>
</g>
<g>
</g>
<g>
</g>
<g>
</g>
<g>
</g>
<g>
</g>
<g>
</g>
<g>
</g>
<g>
</g>
<g>
</g>
</svg>
