<svg height="512pt" viewBox="0 0 512 512.00112" width="512pt" xmlns="http://www.w3.org/2000/svg"><path d="m253.046875 168.203125-84.859375 84.84375c-5.886719 5.917969-5.839844 15.382813 0 21.195313 5.859375 5.859374 15.367188 5.902343 21.226562.015624l84.84375-84.84375c5.84375-5.859374 5.84375-15.367187 0-21.226562-5.839843-5.835938-15.382812-5.84375-21.210937.015625zm0 0"/><path d="m2.339844 186.550781c5.433594 16.273438 25.835937 34.371094 42.816406 36.804688 13.144531 2.46875 10.878906.332031 21.148438 4.304687l161.351562-161.363281c-4.03125-10.433594-1.496094-6.214844-4.304688-21.140625-2.429687-16.980469-20.535156-37.390625-36.808593-42.8125-16.332031-5.433594-33.957031-1.261719-46.054688 10.882812l-127.28125 127.265626c-12.128906 12.144531-16.289062 29.78125-10.867187 46.058593zm0 0"/><path d="m486.394531 168.1875c5.859375 5.859375 15.351563 5.859375 21.210938 0s5.859375-15.351562 0-21.210938c-3.148438-3.148437-82.660157-82.644531-77.59375-77.578124-34.144531-34.144532-86.847657-40.632813-128.273438-15.789063-22.714843 13.183594-34.484375 21.722656-44.648437 25.675781l-177.804688 177.820313c-3.625 9.277343-14.402344 25.203125-25.695312 44.644531-24.828125 41.398438-18.339844 94.132812 15.792968 128.265625 13.238282 13.238281 80.632813 80.628906 77.59375 77.589844 5.859376 5.859375 15.351563 5.859375 21.210938 0s5.859375-15.351563 0-21.210938l-31.816406-31.816406 21.21875-21.214844 31.824218 31.824219c5.855469 5.855469 15.351563 5.855469 21.210938 0 5.855469-5.859375 5.855469-15.355469 0-21.210938l-31.828125-31.828124 21.21875-21.21875 31.816406 31.820312c5.859375 5.859375 15.351563 5.859375 21.210938 0s5.859375-15.351562 0-21.210938l-31.816407-31.820312 21.210938-21.210938 31.816406 31.820313c5.859375 5.859375 15.351563 5.859375 21.210938 0s5.859375-15.351563 0-21.210937l-31.820313-31.820313 21.21875-21.21875 31.828125 31.828125c5.859375 5.859375 15.351563 5.859375 21.210938 0s5.859375-15.351562 0-21.210938l-31.828125-31.828124 21.21875-21.21875 31.820312 31.820312c5.859375 5.859375 15.351563 5.859375 21.210938 0s5.859375-15.351562 0-21.210938l-31.820313-31.820312 21.210938-21.210938 31.820312 31.820313c5.859375 5.859375 15.351563 5.859375 21.210938 0s5.859375-15.351563 0-21.210937l-31.820313-31.820313 21.214844-21.21875 31.816406 31.828125c5.859375 5.859375 15.351563 5.859375 21.210938 0s5.859375-15.351562 0-21.210938l-31.820313-31.828124 21.214844-21.214844zm-190.925781 42.4375-84.84375 84.84375c-17.570312 17.566406-46.101562 17.546875-63.648438 0-17.566406-17.535156-17.617187-46.015625 0-63.632812l84.859376-84.859376c17.5625-17.535156 46.097656-17.519531 63.632812-.015624 17.546875 17.5625 17.546875 46.113281 0 63.664062zm0 0"/></svg>