<svg height="512pt" viewBox="-30 0 511 512" width="512pt" xmlns="http://www.w3.org/2000/svg"><path d="m136.984375 421.953125h88.835937v30h-88.835937zm0 0"/><path d="m382.261719 60.046875h-49.980469v-8.6875c0-28.320313-23.039062-51.359375-51.359375-51.359375h-199.035156c-28.320313 0-51.363281 23.039062-51.363281 51.359375v8.6875h-30.023438v15c0 2.566406.085938 63.597656 7.59375 132.34375 4.445312 40.6875 10.59375 75.535156 18.273438 103.570313 8.703124 31.773437 19.246093 54.75 32.082031 69.808593l-43.746094 131.230469h333.398437l-43.746093-131.230469c12.835937-15.058593 23.378906-38.035156 32.085937-69.808593 1.367188-4.992188 2.683594-10.210938 3.953125-15.628907h41.867188c38.703125 0 70.191406-31.484375 70.191406-70.1875v-94.90625c0-38.703125-31.488281-70.191406-70.191406-70.191406zm-321.738281-8.6875c0-11.777344 9.582031-21.359375 21.363281-21.359375h199.035156c11.777344 0 21.359375 9.582031 21.359375 21.359375v8.6875h-241.757812zm163.9375 310.542969h-28.058594v-271.855469h50.863281c-.21875 23.777344-.964844 72.609375-3.539063 122.972656-5.410156 105.851563-14.855468 138.9375-19.265624 148.882813zm-86.117188 0c-4.40625-9.941406-13.851562-43.007813-19.257812-148.777344-2.578126-50.378906-3.328126-99.277344-3.546876-123.078125h50.863282v271.855469zm-100.398438-157.519532c-5.1875-47.367187-6.761718-91.957031-7.238281-114.335937h54.832031c.222657 24.308594.992188 74.824219 3.6875 126.601563 4.167969 80.101562 10.480469 122.191406 17.375 145.257812h-24.816406c-26.300781-29.761719-38.703125-110.597656-43.839844-157.523438zm268.53125 277.617188h-250.148437l30.03125-90.097656h190.085937zm-25.457031-120.097656h-24.816406c6.894531-23.0625 13.207031-65.152344 17.375-145.253906 2.695313-51.777344 3.464844-102.292969 3.6875-126.601563h54.832031c-.480468 22.378906-2.050781 66.964844-7.238281 114.335937-5.132813 46.925782-17.539063 127.761719-43.839844 157.519532zm141.433594-136.757813c0 22.160157-18.03125 40.1875-40.191406 40.1875h-35.730469c3.160156-17.6875 5.898438-37.035156 8.179688-57.941406 5.390624-49.347656 6.953124-94.714844 7.410156-117.34375h20.140625c22.160156 0 40.191406 18.03125 40.191406 40.191406zm0 0"/></svg>