<svg height="512pt" viewBox="-61 0 512 512" width="512pt" xmlns="http://www.w3.org/2000/svg"><path d="m91.585938 8.289062-10.855469 21.710938h228.542969l-10.851563-21.710938c-2.550781-5.082031-7.734375-8.289062-13.417969-8.289062h-180c-5.683594 0-10.871094 3.207031-13.417968 8.289062zm0 0"/><path d="m390.003906 226v-151c0-8.289062-6.710937-15-15-15h-360c-6.066406 0-11.542968 3.648438-13.859375 9.257812-2.328125 5.609376-1.039062 12.054688 3.253907 16.347657l66.472656 66.476562 12.550781 88.917969c5.753906 0 299.253906 0 291.582031 0 8.289063 0 15-6.710938 15-15zm-30-15h-49.128906l17.140625-121h31.988281zm0 0"/><path d="m195.003906 361c-8.277344 0-15 6.722656-15 15s6.722656 15 15 15c8.273438 0 15-6.722656 15-15s-6.726562-15-15-15zm0 0"/><path d="m285.003906 512c8.28125 0 15-6.714844 15-15v-15h9.578125c13.257813 0 25.78125-5.800781 34.351563-15.90625 8.570312-10.125 12.230468-23.425781 10.050781-36.492188l-20.011719-121c-3.617187-21.78125-22.28125-37.601562-44.386718-37.601562h-189.167969c-22.105469 0-40.765625 15.820312-44.386719 37.601562l-20.007812 121c-2.183594 13.066407 1.476562 26.367188 10.046874 36.492188 8.570313 10.105469 21.09375 15.90625 34.351563 15.90625h9.582031v15c0 8.285156 6.714844 15 15 15 8.28125 0 15-6.714844 15-15v-15h150v15c0 8.285156 6.714844 15 15 15zm-90-91c-24.816406 0-45-20.1875-45-45s20.183594-45 45-45c24.8125 0 45 20.1875 45 45s-20.1875 45-45 45zm0 0"/></svg>