<?xml version="1.0" encoding="iso-8859-1"?>
<!-- Generator: Adobe Illustrator 19.0.0, SVG Export Plug-In . SVG Version: 6.00 Build 0)  -->
<svg version="1.1" id="Capa_1" xmlns="http://www.w3.org/2000/svg" xmlns:xlink="http://www.w3.org/1999/xlink" x="0px" y="0px"
	 viewBox="0 0 512 512" style="enable-background:new 0 0 512 512;" xml:space="preserve">
<g>
	<g>
		<path d="M356.812,32.249L340.93,7.011C338.185,2.648,333.391,0,328.235,0h-144.47c-5.156,0-9.95,2.648-12.696,7.011
			l-15.919,25.298c-3.17,5.038-3.062,11.473,0.277,16.401l62.569,92.369h75.024v0.001l63.458-92.347
			C359.87,43.797,360,37.317,356.812,32.249z"/>
	</g>
</g>
<g>
	<g>
		<path d="M304.526,199.178h7.892c7.759,0,14.049-6.29,14.049-14.049c0-7.759-6.29-14.049-14.049-14.049H199.583
			c-7.759,0-14.049,6.29-14.049,14.049c0,7.759,6.29,14.049,14.049,14.049h7.892c-64.728,20.556-111.632,81.13-111.632,152.665
			C95.844,440.295,167.549,512,256,512s160.157-71.705,160.157-160.157C416.158,280.307,369.255,219.734,304.526,199.178z
			 M256,456.493c-57.797,0-104.65-46.853-104.65-104.65s46.853-104.65,104.65-104.65s104.65,46.853,104.65,104.65
			S313.797,456.493,256,456.493z"/>
	</g>
</g>
<g>
</g>
<g>
</g>
<g>
</g>
<g>
</g>
<g>
</g>
<g>
</g>
<g>
</g>
<g>
</g>
<g>
</g>
<g>
</g>
<g>
</g>
<g>
</g>
<g>
</g>
<g>
</g>
<g>
</g>
</svg>
