<svg id="Capa_1" enable-background="new 0 0 512 512" height="512" viewBox="0 0 512 512" width="512" xmlns="http://www.w3.org/2000/svg"><g><path d="m192.709 335.098c-6.076 6.084-15.934 6.093-22.017.018-6.085-6.075-6.094-15.932-.018-22.017 39.719-39.782 16.988-114.635-40.136-139.128l-10.052-4.31-10.052 4.31c-55.922 23.979-80.658 98.539-40.137 139.128 6.075 6.085 6.066 15.942-.018 22.017-6.104 6.094-15.962 6.047-22.017-.019-9.492-9.507-16.522-20.289-21.298-31.795 2.115 25.297.958 45.721.958 64.986-.001 64.872 27.292 112.712 92.613 112.712 65.322 0 92.615-47.823 92.615-112.711 0-19.395-1.165-39.827.981-65.251-4.775 11.596-11.845 22.468-21.422 32.06z"/><path d="m120.535 31c-82.622 0-143.779 82.659-111.976 183.641 4.625 14.683 8.175 28.021 10.906 40.279 3.224-44.804 32.368-89.701 78.699-109.567l6.753-2.896v-14.219c0-8.598 6.97-15.568 15.568-15.568s15.568 6.97 15.568 15.568v14.218l6.754 2.896c46.282 19.845 75.59 64.93 78.725 109.904 2.741-12.352 6.312-25.798 10.979-40.616 31.835-101.078-29.398-183.64-111.976-183.64z"/><path d="m463.63 335.098c-6.076 6.084-15.934 6.093-22.017.018-6.085-6.075-6.094-15.932-.018-22.017 39.719-39.782 16.988-114.635-40.136-139.128l-10.052-4.31-10.052 4.31c-55.922 23.979-80.658 98.539-40.137 139.128 6.075 6.085 6.066 15.942-.018 22.017-6.104 6.094-15.962 6.047-22.017-.019-9.492-9.507-16.522-20.289-21.298-31.795 2.115 25.297.958 45.721.958 64.986 0 64.872 27.293 112.711 92.614 112.711s92.615-47.823 92.615-112.711c0-19.395-1.165-39.827.981-65.251-4.776 11.597-11.846 22.469-21.423 32.061z"/><path d="m391.456 31c-82.623 0-143.78 82.659-111.977 183.641 4.625 14.683 8.175 28.021 10.906 40.279 3.224-44.804 32.368-89.701 78.699-109.567l6.753-2.896v-14.219c0-8.598 6.97-15.568 15.568-15.568s15.568 6.97 15.568 15.568v14.218l6.754 2.896c46.282 19.845 75.59 64.93 78.725 109.904 2.741-12.352 6.312-25.798 10.979-40.616 31.836-101.078-29.397-183.64-111.975-183.64z"/></g></svg>