<?xml version="1.0" encoding="iso-8859-1"?>
<!-- Generator: Adobe Illustrator 19.0.0, SVG Export Plug-In . SVG Version: 6.00 Build 0)  -->
<svg version="1.1" id="Capa_1" xmlns="http://www.w3.org/2000/svg" xmlns:xlink="http://www.w3.org/1999/xlink" x="0px" y="0px"
	 viewBox="0 0 512.001 512.001" style="enable-background:new 0 0 512.001 512.001;" xml:space="preserve">
<g>
	<g>
		<path d="M341.13,56.104V0h-30.046v64.54c-19.381,8.496-36.268,22.412-48.356,40.544L256,115.176l-6.728-10.092
			c-12.087-18.131-28.975-32.048-48.356-40.544V0H170.87v56.104c-4.945-0.667-9.959-1.02-15.023-1.02v66.101
			c0,33.188,26.904,60.092,60.092,60.092h80.122c33.188,0,60.092-26.904,60.092-60.092V55.084
			C351.09,55.084,346.075,55.437,341.13,56.104z"/>
	</g>
</g>
<g>
	<g>
		<path d="M326.107,211.323H185.893L16.635,475.727v1.002c156.111,47.03,322.619,47.03,478.731,0v-1.002L326.107,211.323z"/>
	</g>
</g>
<g>
</g>
<g>
</g>
<g>
</g>
<g>
</g>
<g>
</g>
<g>
</g>
<g>
</g>
<g>
</g>
<g>
</g>
<g>
</g>
<g>
</g>
<g>
</g>
<g>
</g>
<g>
</g>
<g>
</g>
</svg>
