<?xml version="1.0" encoding="iso-8859-1"?>
<!-- Generator: Adobe Illustrator 19.0.0, SVG Export Plug-In . SVG Version: 6.00 Build 0)  -->
<svg version="1.1" id="Capa_1" xmlns="http://www.w3.org/2000/svg" xmlns:xlink="http://www.w3.org/1999/xlink" x="0px" y="0px"
	 viewBox="0 0 512 512" style="enable-background:new 0 0 512 512;" xml:space="preserve">
<g>
	<g>
		<path d="M334.857,129.811l-22.427-39.932c-2.905-5.175-8.375-8.375-14.31-8.375h-84.786c-5.93,0-11.4,3.2-14.31,8.375
			l-22.427,39.932c-3.659,6.515-2.456,14.671,2.916,19.851l61.057,58.869c4.349,4.343,9.934,6.509,15.491,6.509
			c5.503,0,10.984-2.128,15.212-6.356l60.718-59.077C337.318,144.416,338.494,136.298,334.857,129.811z M255.967,177.789
			l-44.548-42.957l11.52-20.502h65.581l11.542,20.557L255.967,177.789z"/>
	</g>
</g>
<g>
	<g>
		<path d="M256,0c-9.064,0-16.41,7.346-16.41,16.41v35.009c0,9.064,7.346,16.41,16.41,16.41s16.41-7.346,16.41-16.41V16.41
			C272.41,7.346,265.064,0,256,0z"/>
	</g>
</g>
<g>
	<g>
		<path d="M369.729,33.761c-7.018-5.711-17.362-4.65-23.084,2.385l-21.333,26.256c-5.711,7.035-4.644,17.368,2.39,23.084
			c3.041,2.472,6.701,3.676,10.338,3.676c4.77,0,9.502-2.073,12.745-6.061l21.333-26.256
			C377.83,49.811,376.763,39.478,369.729,33.761z"/>
	</g>
</g>
<g>
	<g>
		<path d="M186.689,62.408l-21.333-26.256c-5.711-7.035-16.044-8.107-23.084-2.39c-7.04,5.716-8.107,16.049-2.39,23.084
			l21.333,26.256c3.244,3.993,7.97,6.061,12.745,6.061c3.632,0,7.292-1.203,10.339-3.67
			C191.338,79.776,192.405,69.443,186.689,62.408z"/>
	</g>
</g>
<g>
	<g>
		<path d="M256,185.983c-89.884,0-163.009,73.13-163.009,163.009S166.116,512,256,512c89.879,0,163.009-73.124,163.009-163.009
			S345.884,185.983,256,185.983z M256,479.18c-71.784,0-130.188-58.404-130.188-130.188S184.216,218.803,256,218.803
			s130.188,58.404,130.188,130.188S327.784,479.18,256,479.18z"/>
	</g>
</g>
<g>
</g>
<g>
</g>
<g>
</g>
<g>
</g>
<g>
</g>
<g>
</g>
<g>
</g>
<g>
</g>
<g>
</g>
<g>
</g>
<g>
</g>
<g>
</g>
<g>
</g>
<g>
</g>
<g>
</g>
</svg>
